<svg width="334" height="296" viewBox="0 0 334 296" fill="none" xmlns="http://www.w3.org/2000/svg">
<path d="M261.017 8.96102L35.333 40.6788C18.352 43.0653 6.566 59.0889 9.00864 76.4692L55.7915 213.018C58.234 230.398 73.9802 242.553 90.9612 240.166L132.759 234.292C135.867 233.855 139.005 234.942 141.226 237.225L157.67 254.127L170.849 267.678C178.171 275.197 188.354 273.766 193.319 264.52L202.253 247.861L213.401 227.082C214.907 224.274 217.623 222.365 220.731 221.928L262.529 216.054C279.51 213.667 291.296 197.644 288.853 180.263L296.186 36.109C293.744 18.7287 277.998 6.5745 261.017 8.96102Z" fill="#FFF9EA"/>
<path d="M262.098 8.46273L251.51 9.95073C247.631 108.368 176.921 192.344 79.7239 206.004C71.1017 207.216 62.5281 207.838 54.0394 207.901L55.6845 212.687C58.1271 230.066 73.9446 242.211 91.0136 239.812L133.028 233.908C136.152 233.468 139.304 234.553 141.535 236.835L158.051 253.727L171.288 267.27C178.641 274.786 188.877 273.347 193.874 264.096L202.865 247.429L214.085 226.639C215.601 223.831 218.332 221.919 221.455 221.48L263.47 215.575C280.539 213.176 292.396 197.143 289.953 179.762L297.427 35.5883C294.984 18.208 279.167 6.06384 262.098 8.46273Z" fill="#FFAE95"/>
<path d="M102.025 231.969L90.6338 233.57C76.0917 235.613 62.5894 225.381 60.5345 210.76C60.4951 210.479 60.4286 210.203 60.3357 209.935L14.1274 76.5607C12.3158 62.0963 22.4207 48.7702 36.8278 46.7455L215.333 21.6582C217.723 21.3223 219.387 19.1096 219.051 16.7162C218.715 14.3228 216.505 12.6547 214.115 12.9905L35.6096 38.0778C16.2957 40.7922 2.80119 58.7837 5.52775 78.1842C5.56722 78.465 5.63372 78.7414 5.72661 79.0089L51.9441 212.412C54.8761 231.579 72.6828 244.931 91.8519 242.237L103.243 240.636C105.633 240.301 107.297 238.088 106.961 235.694C106.624 233.301 104.414 231.633 102.025 231.969Z" fill="#1C1C1E"/>
<path d="M262.336 5.72143L235.097 9.54966C232.695 9.88721 231.022 12.1102 231.36 14.5146C231.698 16.9191 233.919 18.5947 236.32 18.2572L263.56 14.4289C278.04 12.3939 291.493 22.4632 293.749 36.9335L286.047 178.528C286.031 178.813 286.044 179.47 286.084 179.752C288.148 194.44 277.936 207.689 263.321 209.743L221.376 215.638C216.908 216.266 212.944 219.007 210.771 222.972L190.53 259.906C188.793 263.074 186.247 265.041 183.363 265.446C180.479 265.852 177.49 264.662 174.949 262.098L145.31 232.172C142.128 228.96 137.561 227.417 133.094 228.045L122.071 229.594C119.669 229.932 117.996 232.155 118.334 234.559C118.672 236.964 120.893 238.639 123.295 238.302L134.318 236.753C136.056 236.508 137.833 237.11 139.074 238.363L168.713 268.289C173.19 272.805 178.976 274.943 184.587 274.154C190.198 273.366 195.171 269.716 198.23 264.139L218.472 227.204C219.319 225.658 220.862 224.589 222.6 224.345L264.545 218.45C283.811 215.743 297.317 197.916 294.841 178.595L302.545 36.9706C302.561 36.6861 302.548 36.4013 302.509 36.1192C299.768 16.6296 281.748 2.99328 262.336 5.72143Z" fill="#1C1C1E"/>
</svg>
