<svg width="40" height="40" viewBox="0 0 40 40" fill="none" xmlns="http://www.w3.org/2000/svg">
<path d="M3.3335 19.1667V20.8334C3.3335 26.3125 3.3335 29.0521 4.84676 30.896C5.12379 31.2335 5.43331 31.5431 5.77087 31.8201C7.61479 33.3334 10.3544 33.3334 15.8335 33.3334C21.3126 33.3334 24.0522 33.3334 25.8961 31.8201C26.2337 31.5431 26.5432 31.2335 26.8202 30.896C28.3335 29.0521 28.3335 26.3125 28.3335 20.8334V19.1667C28.3335 13.6876 28.3335 10.948 26.8202 9.10407C26.5432 8.7665 26.2337 8.45698 25.8961 8.17995C24.0522 6.66669 21.3126 6.66669 15.8335 6.66669C10.3544 6.66669 7.61479 6.66669 5.77087 8.17995C5.43331 8.45698 5.12379 8.7665 4.84676 9.10407C4.13373 9.9729 3.75667 11.0406 3.55727 12.5" stroke="#FFF9EA" stroke-width="1.5" stroke-linecap="round"/>
<path d="M28.3335 15.8333L29.4308 15.2847C32.6739 13.6631 34.2955 12.8523 35.4812 13.5851C36.6668 14.3179 36.6668 16.1309 36.6668 19.7568V20.2432C36.6668 23.8691 36.6668 25.6821 35.4812 26.4149C34.2955 27.1477 32.6739 26.3369 29.4308 24.7153L28.3335 24.1667V15.8333Z" stroke="#FFF9EA" stroke-width="1.5"/>
</svg>
