<svg width="20" height="20" viewBox="0 0 20 20" fill="none" xmlns="http://www.w3.org/2000/svg">
<path d="M3.89848 10.2567C3.62607 9.94468 3.15229 9.91255 2.84025 10.185C2.52822 10.4574 2.4961 10.9312 2.76851 11.2432L3.89848 10.2567ZM5.95254 13.75L5.38756 14.2432C5.52998 14.4063 5.73598 14.5 5.95254 14.5C6.16911 14.5 6.3751 14.4063 6.51753 14.2432L5.95254 13.75ZM13.0652 6.7432C13.3376 6.43116 13.3054 5.95738 12.9934 5.68497C12.6814 5.41256 12.2076 5.44468 11.9352 5.75671L13.0652 6.7432ZM8.66137 9.50671C8.38896 9.81874 8.42108 10.2925 8.73311 10.5649C9.04514 10.8374 9.51893 10.8052 9.79134 10.4932L8.66137 9.50671ZM8.15444 12.3682C8.42685 12.0562 8.39473 11.5824 8.08269 11.31C7.77066 11.0376 7.29687 11.0697 7.02446 11.3817L8.15444 12.3682ZM2.76851 11.2432L5.38756 14.2432L6.51753 13.2567L3.89848 10.2567L2.76851 11.2432ZM6.51753 14.2432L8.15444 12.3682L7.02446 11.3817L5.38756 13.2567L6.51753 14.2432ZM9.79134 10.4932L11.4282 8.6182L10.2983 7.63171L8.66137 9.50671L9.79134 10.4932ZM11.4282 8.6182L13.0652 6.7432L11.9352 5.75671L10.2983 7.63171L11.4282 8.6182Z" fill="#34C759"/>
<path d="M16.667 6.30208L13.0955 10.0521M9.16699 13.3333L9.52393 13.8021L11.3097 11.9271" stroke="#34C759" stroke-width="1.5" stroke-linecap="round" stroke-linejoin="round"/>
</svg>
