<svg width="32" height="32" viewBox="0 0 32 32" fill="none" xmlns="http://www.w3.org/2000/svg">
<path d="M9.3335 10.6667C9.3335 6.98477 12.3183 4 16.0002 4C19.6821 4 22.6668 6.98477 22.6668 10.6667V14.6667C22.6668 18.3486 19.6821 21.3333 16.0002 21.3333C12.3183 21.3333 9.3335 18.3486 9.3335 14.6667V10.6667Z" stroke="#303030" stroke-width="1.5"/>
<path d="M17.3332 10.6667L22.6665 10.6667" stroke="#303030" stroke-width="1.5" stroke-linecap="round"/>
<path d="M17.3332 14.6667L22.6665 14.6667" stroke="#303030" stroke-width="1.5" stroke-linecap="round"/>
<path d="M16 25.3333V29.3333" stroke="#303030" stroke-width="1.5" stroke-linecap="round"/>
<path d="M27.4168 13.3333C27.4168 12.9191 27.081 12.5833 26.6668 12.5833C26.2526 12.5833 25.9168 12.9191 25.9168 13.3333H27.4168ZM6.0835 13.3333C6.0835 12.9191 5.74771 12.5833 5.3335 12.5833C4.91928 12.5833 4.5835 12.9191 4.5835 13.3333H6.0835ZM20.8043 23.3442C20.4421 23.5452 20.3114 24.0017 20.5124 24.3639C20.7133 24.7261 21.1699 24.8568 21.5321 24.6558L20.8043 23.3442ZM25.9168 13.3333V14.6667H27.4168V13.3333H25.9168ZM6.0835 14.6667V13.3333H4.5835V14.6667H6.0835ZM16.0002 24.5833C10.5233 24.5833 6.0835 20.1435 6.0835 14.6667H4.5835C4.5835 20.9719 9.69491 26.0833 16.0002 26.0833V24.5833ZM25.9168 14.6667C25.9168 18.3993 23.8549 21.6514 20.8043 23.3442L21.5321 24.6558C25.0399 22.7093 27.4168 18.9661 27.4168 14.6667H25.9168Z" fill="#303030"/>
</svg>
