<svg width="40" height="44" viewBox="0 0 40 44" fill="none" xmlns="http://www.w3.org/2000/svg">
<g filter="url(#filter0_d_2126_317)">
<path d="M25.1679 25.0453L25.7117 25.5619L25.7117 25.5619L25.1679 25.0453ZM25.927 24.2462L25.3832 23.7297V23.7297L25.927 24.2462ZM29.9548 23.6872L29.5806 24.3372L29.9548 23.6872ZM33.1389 25.52L32.7648 26.17L33.1389 25.52ZM34.0362 31.2641L34.58 31.7806L34.0362 31.2641ZM31.6686 33.7567L31.1248 33.2402L31.6686 33.7567ZM29.4605 34.9385L29.5342 35.6849L29.4605 34.9385ZM13.0257 27.4586L13.5695 26.9421L13.0257 27.4586ZM5.7538 11.5697C5.7316 11.1561 5.3783 10.8388 4.96468 10.861C4.55107 10.8832 4.23376 11.2365 4.25596 11.6501L5.7538 11.5697ZM15.3179 14.6751L15.8617 15.1916L15.3179 14.6751ZM15.7959 14.1719L16.3397 14.6884L15.7959 14.1719ZM16.0571 9.4885L16.6695 9.05552V9.05552L16.0571 9.4885ZM13.9555 6.51602L13.3431 6.94901V6.94901L13.9555 6.51602ZM8.22536 5.49789C7.9401 5.79822 7.95231 6.27293 8.25264 6.5582C8.55297 6.84346 9.02768 6.83125 9.31295 6.53092L8.22536 5.49789ZM18.4386 21.7598L18.9824 21.2433L18.4386 21.7598ZM18.0395 32.5972C18.3903 32.8176 18.8532 32.7119 19.0736 32.3612C19.294 32.0105 19.1884 31.5475 18.8377 31.3272L18.0395 32.5972ZM25.0858 33.9201C24.6804 33.8352 24.2829 34.0951 24.198 34.5005C24.1131 34.9059 24.373 35.3034 24.7784 35.3883L25.0858 33.9201ZM25.7117 25.5619L26.4708 24.7627L25.3832 23.7297L24.6241 24.5288L25.7117 25.5619ZM29.5806 24.3372L32.7648 26.17L33.5131 24.87L30.3289 23.0372L29.5806 24.3372ZM33.4924 30.7475L31.1248 33.2402L32.2124 34.2732L34.58 31.7806L33.4924 30.7475ZM13.5695 26.9421C7.02358 20.0505 5.89494 14.1992 5.7538 11.5697L4.25596 11.6501C4.41532 14.619 5.67895 20.813 12.4819 27.9752L13.5695 26.9421ZM15.8617 15.1916L16.3397 14.6884L15.2521 13.6553L14.7741 14.1586L15.8617 15.1916ZM16.6695 9.05552L14.5679 6.08304L13.3431 6.94901L15.4447 9.92148L16.6695 9.05552ZM15.3179 14.6751C14.7741 14.1586 14.7734 14.1593 14.7727 14.1601C14.7725 14.1603 14.7718 14.1611 14.7713 14.1616C14.7703 14.1626 14.7693 14.1637 14.7683 14.1648C14.7662 14.167 14.7641 14.1694 14.7618 14.1719C14.7573 14.1769 14.7523 14.1824 14.747 14.1885C14.7363 14.2008 14.7241 14.2154 14.7107 14.2323C14.684 14.2661 14.6523 14.3095 14.6183 14.3626C14.5501 14.4692 14.4728 14.6147 14.4063 14.8015C14.2718 15.1797 14.1899 15.7031 14.2893 16.3818C14.4858 17.7231 15.3825 19.6313 17.8948 22.2763L18.9824 21.2433C16.5697 18.7032 15.906 17.0691 15.7735 16.1643C15.7083 15.72 15.7697 15.4444 15.8195 15.3044C15.8452 15.2321 15.8705 15.1887 15.8817 15.1711C15.8874 15.1622 15.8897 15.1597 15.887 15.1632C15.8856 15.1649 15.8829 15.1682 15.8788 15.1729C15.8767 15.1753 15.8743 15.178 15.8714 15.1812C15.87 15.1827 15.8685 15.1844 15.8669 15.1861C15.8661 15.187 15.8652 15.1879 15.8644 15.1888C15.8639 15.1893 15.8633 15.19 15.8631 15.1902C15.8624 15.1909 15.8617 15.1916 15.3179 14.6751ZM17.8948 22.2763C20.4027 24.9167 22.2257 25.8755 23.5299 26.0873C24.1935 26.1951 24.7098 26.1065 25.0842 25.9588C25.2684 25.8862 25.411 25.8021 25.5147 25.7286C25.5664 25.6919 25.6084 25.6578 25.641 25.6292C25.6574 25.6149 25.6714 25.6019 25.6831 25.5906C25.689 25.5849 25.6943 25.5797 25.6991 25.5749C25.7015 25.5725 25.7037 25.5702 25.7058 25.568C25.7069 25.5669 25.7079 25.5659 25.7089 25.5648C25.7094 25.5643 25.7101 25.5636 25.7103 25.5633C25.711 25.5626 25.7117 25.5619 25.1679 25.0453C24.6241 24.5288 24.6248 24.5281 24.6255 24.5274C24.6257 24.5272 24.6264 24.5265 24.6268 24.526C24.6277 24.5251 24.6286 24.5242 24.6294 24.5234C24.631 24.5216 24.6326 24.52 24.6341 24.5185C24.6371 24.5155 24.6398 24.5129 24.6421 24.5107C24.6467 24.5062 24.65 24.5033 24.6519 24.5016C24.6557 24.4983 24.6541 24.5 24.6469 24.5051C24.6327 24.5152 24.5958 24.539 24.5339 24.5634C24.4161 24.6099 24.1735 24.6722 23.7704 24.6067C22.9412 24.472 21.3996 23.7881 18.9824 21.2433L17.8948 22.2763ZM14.5679 6.08304C13.0457 3.93005 10.0345 3.59315 8.22536 5.49789L9.31295 6.53092C10.4188 5.36668 12.3221 5.50495 13.3431 6.94901L14.5679 6.08304ZM31.1248 33.2402C30.605 33.7874 30.0142 34.1302 29.3869 34.1921L29.5342 35.6849C30.6249 35.5772 31.5282 34.9935 32.2124 34.2732L31.1248 33.2402ZM16.3397 14.6884C17.7783 13.1738 17.8912 10.7834 16.6695 9.05552L15.4447 9.92148C16.2779 11.0998 16.1687 12.6904 15.2521 13.6553L16.3397 14.6884ZM32.7648 26.17C34.4036 27.1132 34.7444 29.4294 33.4924 30.7475L34.58 31.7806C36.5242 29.7337 35.9639 26.2806 33.5131 24.87L32.7648 26.17ZM26.4708 24.7627C27.276 23.915 28.5309 23.733 29.5806 24.3372L30.3289 23.0372C28.6934 22.0958 26.6767 22.3678 25.3832 23.7297L26.4708 24.7627ZM18.8377 31.3272C17.1609 30.2735 15.3839 28.8523 13.5695 26.9421L12.4819 27.9752C14.378 29.9714 16.2514 31.4735 18.0395 32.5972L18.8377 31.3272ZM29.3869 34.1921C28.4329 34.2863 26.9397 34.3083 25.0858 33.9201L24.7784 35.3883C26.8025 35.8121 28.451 35.7918 29.5342 35.6849L29.3869 34.1921Z" fill="#FFF9EA"/>
</g>
<defs>
<filter id="filter0_d_2126_317" x="-4" y="0" width="48" height="48" filterUnits="userSpaceOnUse" color-interpolation-filters="sRGB">
<feFlood flood-opacity="0" result="BackgroundImageFix"/>
<feColorMatrix in="SourceAlpha" type="matrix" values="0 0 0 0 0 0 0 0 0 0 0 0 0 0 0 0 0 0 127 0" result="hardAlpha"/>
<feOffset dy="4"/>
<feGaussianBlur stdDeviation="2"/>
<feComposite in2="hardAlpha" operator="out"/>
<feColorMatrix type="matrix" values="0 0 0 0 0 0 0 0 0 0 0 0 0 0 0 0 0 0 0.25 0"/>
<feBlend mode="normal" in2="BackgroundImageFix" result="effect1_dropShadow_2126_317"/>
<feBlend mode="normal" in="SourceGraphic" in2="effect1_dropShadow_2126_317" result="shape"/>
</filter>
</defs>
</svg>
