<svg aria-hidden="true" style="position: absolute; width: 0; height: 0; overflow: hidden;" version="1.1" xmlns="http://www.w3.org/2000/svg" xmlns:xlink="http://www.w3.org/1999/xlink">
<defs>
<symbol id="icon-add" viewBox="0 0 32 32">
<path stroke-linejoin="miter" stroke-linecap="round" stroke-miterlimit="4" stroke-width="1.5" d="M25.347 17.466c3.537-3.386 3.537-8.875 0-12.26s-9.271-3.386-12.808 0M10.557 23.742l10.521-10.071c1.263-1.209 1.263-3.17 0-4.379s-3.311-1.209-4.574 0l-10.445 9.998c-2.4 2.297-2.4 6.022 0 8.32s6.291 2.297 8.691 0l5.299-5.072M4 13.38l4.269-4.087"></path>
</symbol>
<symbol id="icon-camera" viewBox="0 0 32 32">
<path fill="none" stroke="#fff9ea" style="stroke: var(--color1, #fff9ea)" stroke-linejoin="miter" stroke-linecap="round" stroke-miterlimit="4" stroke-width="1.2" d="M2.667 15.333v1.333c0 4.383 0 6.575 1.211 8.050 0.222 0.27 0.469 0.518 0.739 0.739 1.475 1.211 3.667 1.211 8.050 1.211s6.575 0 8.050-1.211c0.27-0.222 0.518-0.469 0.739-0.739 1.211-1.475 1.211-3.667 1.211-8.050v-1.333c0-4.383 0-6.575-1.211-8.050-0.222-0.27-0.469-0.518-0.739-0.739-1.475-1.211-3.667-1.211-8.050-1.211s-6.575 0-8.050 1.211c-0.27 0.222-0.518 0.469-0.739 0.739-0.57 0.695-0.872 1.549-1.032 2.717"></path>
<path fill="none" stroke="#fff9ea" style="stroke: var(--color1, #fff9ea)" stroke-linejoin="miter" stroke-linecap="butt" stroke-miterlimit="4" stroke-width="1.2" d="M22.667 12.667l0.878-0.439c2.594-1.297 3.892-1.946 4.84-1.36s0.948 2.037 0.948 4.937v0.389c0 2.901 0 4.351-0.948 4.937s-2.246-0.062-4.84-1.36l-0.878-0.439v-6.667z"></path>
</symbol>
<symbol id="icon-dots" viewBox="0 0 32 32">
<path fill="none" stroke="#fff9ea" style="stroke: var(--color1, #fff9ea)" stroke-linejoin="miter" stroke-linecap="round" stroke-miterlimit="4" stroke-width="1.2" d="M6.667 18.667c1.473 0 2.667-1.194 2.667-2.667s-1.194-2.667-2.667-2.667-2.667 1.194-2.667 2.667"></path>
<path fill="none" stroke="#fff9ea" style="stroke: var(--color1, #fff9ea)" stroke-linejoin="miter" stroke-linecap="butt" stroke-miterlimit="4" stroke-width="1.2" d="M18.666 16c0 1.473-1.194 2.667-2.667 2.667s-2.667-1.194-2.667-2.667c0-1.473 1.194-2.667 2.667-2.667s2.667 1.194 2.667 2.667z"></path>
<path fill="none" stroke="#fff9ea" style="stroke: var(--color1, #fff9ea)" stroke-linejoin="miter" stroke-linecap="round" stroke-miterlimit="4" stroke-width="1.2" d="M28 16c0 1.473-1.194 2.667-2.667 2.667s-2.667-1.194-2.667-2.667c0-1.473 1.194-2.667 2.667-2.667"></path>
</symbol>
<symbol id="icon-emoji" viewBox="0 0 31 32">
<path fill="none" stroke="#303030" style="stroke: var(--color2, #303030)" stroke-linejoin="miter" stroke-linecap="round" stroke-miterlimit="4" stroke-width="1.2308" d="M12.308 17.504c0.93 0.69 2.062 1.094 3.282 1.094s2.352-0.404 3.282-1.094"></path>
<path d="M19.966 11.487c0 0.906-0.49 1.641-1.094 1.641s-1.094-0.735-1.094-1.641 0.49-1.641 1.094-1.641c0.604 0 1.094 0.735 1.094 1.641z"></path>
<path d="M13.402 11.487c0 0.906-0.49 1.641-1.094 1.641s-1.094-0.735-1.094-1.641c0-0.906 0.49-1.641 1.094-1.641s1.094 0.735 1.094 1.641z"></path>
<path fill="none" stroke="#303030" style="stroke: var(--color2, #303030)" stroke-linejoin="miter" stroke-linecap="round" stroke-miterlimit="4" stroke-width="1.2308" d="M10.12 3.652c1.609-0.931 3.477-1.464 5.47-1.464 6.042 0 10.94 4.898 10.94 10.94s-4.898 10.94-10.94 10.94c-6.042 0-10.94-4.898-10.94-10.94 0-1.993 0.533-3.861 1.464-5.47"></path>
</symbol>
<symbol id="icon-microph" viewBox="0 0 32 32">
<path fill="none" stroke="#303030" style="stroke: var(--color2, #303030)" stroke-linejoin="miter" stroke-linecap="butt" stroke-miterlimit="4" stroke-width="1.5" d="M9.334 10.667c0-3.682 2.985-6.667 6.667-6.667s6.667 2.985 6.667 6.667v4c0 3.682-2.985 6.667-6.667 6.667s-6.667-2.985-6.667-6.667v-4z"></path>
<path fill="none" stroke="#303030" style="stroke: var(--color2, #303030)" stroke-linejoin="miter" stroke-linecap="round" stroke-miterlimit="4" stroke-width="1.5" d="M17.333 10.667h5.333"></path>
<path fill="none" stroke="#303030" style="stroke: var(--color2, #303030)" stroke-linejoin="miter" stroke-linecap="round" stroke-miterlimit="4" stroke-width="1.5" d="M17.333 14.667h5.333"></path>
<path fill="none" stroke="#303030" style="stroke: var(--color2, #303030)" stroke-linejoin="miter" stroke-linecap="round" stroke-miterlimit="4" stroke-width="1.5" d="M16 25.333v4"></path>
<path d="M27.417 13.333c0-0.414-0.336-0.75-0.75-0.75s-0.75 0.336-0.75 0.75h1.5zM6.083 13.333c0-0.414-0.336-0.75-0.75-0.75s-0.75 0.336-0.75 0.75h1.5zM20.804 23.344c-0.362 0.201-0.493 0.657-0.292 1.020s0.657 0.493 1.020 0.292l-0.728-1.312zM25.917 13.333v1.333h1.5v-1.333h-1.5zM6.083 14.667v-1.333h-1.5v1.333h1.5zM16 24.583c-5.477 0-9.917-4.44-9.917-9.917h-1.5c0 6.305 5.111 11.417 11.417 11.417v-1.5zM25.917 14.667c0 3.733-2.062 6.985-5.113 8.678l0.728 1.312c3.508-1.947 5.885-5.69 5.885-9.989h-1.5z"></path>
</symbol>
<symbol id="icon-phone" viewBox="0 0 29 32">
<path fill="#fff9ea" style="fill: var(--color1, #fff9ea)" d="M18.304 18.215v0zM18.856 17.634v0zM21.785 17.227v0zM24.101 18.56v0zM24.754 22.738v0zM23.032 24.55v0zM21.426 25.41v0zM9.473 19.97v0zM4.185 8.414c-0.016-0.301-0.273-0.532-0.574-0.515s-0.532 0.273-0.515 0.574l1.089-0.058zM11.14 10.673v0zM11.488 10.307v0zM11.678 6.901v0zM10.149 4.739v0zM5.982 3.998c-0.207 0.218-0.199 0.564 0.020 0.771s0.564 0.199 0.771-0.020l-0.791-0.751zM13.41 15.825v0zM13.12 23.707c0.255 0.16 0.592 0.083 0.752-0.172s0.084-0.592-0.172-0.752l-0.581 0.924zM18.244 24.669c-0.295-0.062-0.584 0.127-0.646 0.422s0.127 0.584 0.422 0.646l0.224-1.068zM18.699 18.59l0.552-0.581-0.791-0.751-0.552 0.581 0.791 0.751zM21.513 17.7l2.316 1.333 0.544-0.945-2.316-1.333-0.544 0.945zM24.358 22.362l-1.722 1.813 0.791 0.751 1.722-1.813-0.791-0.751zM9.869 19.594c-4.761-5.012-5.582-9.268-5.684-11.18l-1.089 0.058c0.116 2.159 1.035 6.664 5.982 11.873l0.791-0.751zM11.536 11.048l0.348-0.366-0.791-0.751-0.348 0.366 0.791 0.751zM12.123 6.586l-1.528-2.162-0.891 0.63 1.528 2.162 0.891-0.63zM11.14 10.673c-0.396-0.376-0.396-0.375-0.396-0.375s-0.001 0.001-0.001 0.001-0.001 0.002-0.002 0.002-0.003 0.003-0.005 0.005-0.007 0.008-0.011 0.012-0.017 0.020-0.026 0.032c-0.019 0.025-0.042 0.056-0.067 0.095-0.050 0.078-0.106 0.183-0.154 0.319-0.098 0.275-0.157 0.656-0.085 1.149 0.143 0.976 0.795 2.363 2.622 4.287l0.791-0.751c-1.755-1.847-2.237-3.036-2.334-3.694-0.047-0.323-0.003-0.524 0.033-0.625 0.019-0.053 0.037-0.084 0.045-0.097 0.004-0.006 0.006-0.008 0.004-0.006-0.001 0.001-0.003 0.004-0.006 0.007-0.002 0.002-0.003 0.004-0.005 0.006-0.001 0.001-0.002 0.002-0.003 0.004s-0.001 0.001-0.002 0.002-0.001 0.001-0.001 0.001-0.001 0.001-0.396-0.375zM13.014 16.201c1.824 1.92 3.15 2.618 4.098 2.772 0.483 0.078 0.858 0.014 1.13-0.093 0.134-0.053 0.238-0.114 0.313-0.167 0.038-0.027 0.068-0.052 0.092-0.072 0.012-0.010 0.022-0.020 0.031-0.028 0.004-0.004 0.008-0.008 0.012-0.011 0.002-0.002 0.003-0.003 0.005-0.005s0.002-0.002 0.002-0.002 0.001-0.001 0.001-0.001 0.001-0.001-0.394-0.377-0.395-0.376-0.394-0.377 0.001-0.001 0.001-0.001 0.001-0.001 0.002-0.002 0.002-0.002 0.003-0.004 0.004-0.004 0.006-0.006 0.006-0.005 0.007-0.007 0.002-0.001-0.004 0.003c-0.010 0.007-0.037 0.025-0.082 0.042-0.086 0.034-0.262 0.079-0.555 0.032-0.603-0.098-1.724-0.595-3.482-2.446l-0.791 0.751zM10.595 4.424c-1.107-1.566-3.297-1.811-4.613-0.426l0.791 0.751c0.804-0.847 2.188-0.746 2.931 0.304l0.891-0.63zM22.636 24.175c-0.378 0.398-0.808 0.647-1.264 0.692l0.107 1.086c0.793-0.078 1.45-0.503 1.948-1.027l-0.791-0.751zM11.883 10.682c1.046-1.102 1.128-2.84 0.24-4.097l-0.891 0.63c0.606 0.857 0.527 2.014-0.14 2.716l0.791 0.751zM23.829 19.033c1.192 0.686 1.44 2.37 0.529 3.329l0.791 0.751c1.414-1.489 1.006-4-0.776-5.026l-0.544 0.945zM19.252 18.009c0.586-0.616 1.498-0.749 2.262-0.309l0.544-0.945c-1.189-0.685-2.656-0.487-3.597 0.504l0.791 0.751zM13.7 22.783c-1.22-0.766-2.512-1.8-3.831-3.189l-0.791 0.751c1.379 1.452 2.741 2.544 4.042 3.361l0.581-0.924zM21.372 24.867c-0.694 0.069-1.78 0.084-3.128-0.198l-0.224 1.068c1.472 0.308 2.671 0.293 3.459 0.216l-0.107-1.086z"></path>
</symbol>
<symbol id="icon-sent" viewBox="0 0 34 32">
<path stroke-linejoin="miter" stroke-linecap="round" stroke-miterlimit="4" stroke-width="1.6" d="M20.267 23.356l11.212-5c2.118-0.945 2.118-3.768 0-4.712l-26.416-11.78c-2.393-1.067-4.876 1.303-3.69 3.523l5.043 9.446c0.392 0.735 0.392 1.599 0 2.334l-5.043 9.446c-1.185 2.22 1.297 4.59 3.69 3.523l7.602-3.39"></path>
</symbol>
</defs>
</svg>
